<mxfile host="app.diagrams.net" modified="2024-06-09T19:06:21.273Z" agent="Mozilla/5.0 (Windows NT 10.0; Win64; x64) AppleWebKit/537.36 (KHTML, like Gecko) Chrome/125.0.0.0 Safari/537.36" version="24.5.1" etag="q36nVHippKziTf3RgwOu" type="github">
  <diagram name="Page-1" id="oC2t4R-7iw4KlVd7zQN-">
    <mxGraphModel>
      <root>
        <mxCell id="0" />
        <mxCell id="1" parent="0" />
      </root>
    </mxGraphModel>
  </diagram>
</mxfile>
